<?xml version="1.0" encoding="UTF-8" standalone="no"?>
<!DOCTYPE svg PUBLIC "-//W3C//DTD SVG 1.1//EN" "http://www.w3.org/Graphics/SVG/1.1/DTD/svg11.dtd">
<svg width="100%" height="100%" viewBox="0 0 561 561" version="1.1" xmlns="http://www.w3.org/2000/svg" xmlns:xlink="http://www.w3.org/1999/xlink" xml:space="preserve" xmlns:serif="http://www.serif.com/" style="fill-rule:evenodd;clip-rule:evenodd;stroke-linejoin:round;stroke-miterlimit:2;">
    <g transform="matrix(1,0,0,1,-97.573737,-943.164842)">
        <g transform="matrix(1.224537,0,0,1.224537,-599.510903,926.891237)">
            <path d="M1027.174,117.823L1027.174,366.667C1027.174,424.36 980.334,471.2 922.641,471.2L673.797,471.2C616.103,471.2 569.264,424.36 569.264,366.667L569.264,117.823C569.264,60.129 616.103,13.29 673.797,13.29L922.641,13.29C980.334,13.29 1027.174,60.129 1027.174,117.823Z" style="fill:rgb(19,49,83);"/>
        </g>
        <g transform="matrix(0.88909,0,0,0.88909,53.033748,760.958249)">
            <g transform="matrix(1.121264,0,0,1.121264,-228.815279,-101.287595)">
                <path d="M538.049,362.028C567.789,363.256 595.796,371.246 620.572,384.499C620.506,384.555 589.862,395.508 589.744,395.447C573.573,389.355 556.23,385.663 538.151,384.805C538.229,384.883 538.049,361.918 538.049,362.028ZM395.531,416.662C428.657,384.305 473.398,363.79 522.88,361.991C522.917,361.954 523.099,384.787 523.062,384.75C479.552,386.5 440.236,404.661 411.144,433.206C410.931,433.206 395.531,416.448 395.531,416.662ZM522.828,746.689C475.379,744.951 432.292,726.003 399.63,695.909L415.541,679.639C444.097,705.74 481.593,722.219 522.875,723.924L522.828,746.689ZM360.408,561.589C361.1,578.015 364.13,593.839 369.175,608.739L358.086,640.973C345.959,616.978 338.71,590.107 337.643,561.664L360.408,561.589ZM402.638,442.179C377.862,470.282 362.234,506.638 360.431,546.569L337.654,546.749C339.445,500.672 357.465,458.731 386.153,426.486L402.638,442.179ZM722.32,561.853C721.093,593.759 712.084,623.684 697.139,649.783L685.421,622.574C693.659,603.854 698.613,583.368 699.551,561.848L722.32,561.853ZM698.177,460.735C712.489,486.376 721.107,515.619 722.317,546.749L699.545,546.692C698.67,527.008 694.436,508.191 687.402,490.802C687.402,491.024 698.4,460.735 698.177,460.735ZM537.975,723.885C577.358,722.056 613.252,706.78 641.166,682.547L662.055,694.31C629.396,725.14 585.966,744.678 538.036,746.654L537.975,723.885Z" style="fill:url(#_Linear1);"/>
            </g>
            <g>
                <g transform="matrix(1,0,0,1,-124.546897,2.934274)">
                    <path d="M681.268,339.985C681.248,340.134 681.217,340.276 681.173,340.411C677.706,351.081 657.252,419.162 654.972,426.668C654.965,426.69 654.951,426.713 654.928,426.737C653.705,431.756 649.176,435.485 643.784,435.485C639.834,435.485 636.348,433.485 634.284,430.443C629.316,425.371 618.799,412.698 618.799,412.698C618.799,412.698 559.082,471.784 517.233,510.27C534.783,530.64 552.295,558.409 550.877,588.152C549.056,626.341 516.574,655.867 478.385,654.047C440.196,652.226 410.669,619.744 412.49,581.555C414.012,549.632 438.427,520.888 458.836,502.267C452.532,493.146 448.154,486.867 448.154,486.867C448.154,486.867 432.996,467.683 428.862,461.596C424.801,455.617 416.677,452.989 412.142,467.394C407.771,481.279 358.621,621.03 355.082,631.089C352.062,640.265 343.418,646.897 333.236,646.897C320.546,646.897 310.243,636.594 310.243,623.903C310.243,620.454 311.004,617.18 312.368,614.243L365.761,457.345C365.761,457.345 380.581,415.123 413.125,413.522C445.668,411.922 457.223,429.515 457.757,429.782C458.014,429.91 474.014,451.462 490.55,473.794L587.932,381.499C587.932,381.499 582.492,375.161 570.108,364.62C569.609,364.195 569.147,363.729 568.727,363.226C568.215,362.653 567.812,362.059 567.507,361.448C566.589,359.8 566.066,357.902 566.066,355.882C566.066,350.288 570.08,345.623 575.384,344.614L666.432,325.955C667.627,325.532 668.914,325.302 670.254,325.302C676.585,325.302 681.724,330.442 681.724,336.772C681.724,337.887 681.565,338.965 681.268,339.985ZM483.402,536.306C483.402,536.306 456.971,561.071 456.038,580.659C455.375,594.563 466.125,606.39 480.029,607.053C493.934,607.716 505.76,596.965 506.423,583.061C507.357,563.473 483.402,536.306 483.402,536.306Z" style="fill:url(#_Linear2);"/>
                </g>
                <g transform="matrix(0.994973,-0.329291,0.363301,1.097738,-303.394501,130.306456)">
                    <path d="M612.473,510.641L612.473,636.372C612.473,647.581 602.433,656.681 590.066,656.681C577.699,656.681 567.659,647.581 567.659,636.372L567.659,510.641C567.659,499.432 577.699,490.331 590.066,490.331C602.433,490.331 612.473,499.432 612.473,510.641Z" style="fill:url(#_Linear3);"/>
                </g>
            </g>
        </g>
    </g>
    <defs>
        <linearGradient id="_Linear1" x1="0" y1="0" x2="1" y2="0" gradientUnits="userSpaceOnUse" gradientTransform="matrix(402.327472,-374.591556,374.591556,402.327472,337.643342,722.740568)"><stop offset="0" style="stop-color:rgb(131,0,139);stop-opacity:1"/><stop offset="1" style="stop-color:rgb(96,243,233);stop-opacity:1"/></linearGradient>
        <linearGradient id="_Linear2" x1="0" y1="0" x2="1" y2="0" gradientUnits="userSpaceOnUse" gradientTransform="matrix(431.324153,-364.997287,364.997287,431.324153,274.319106,677.446205)"><stop offset="0" style="stop-color:rgb(66,111,163);stop-opacity:1"/><stop offset="0.48" style="stop-color:rgb(75,149,183);stop-opacity:1"/><stop offset="1" style="stop-color:rgb(99,255,240);stop-opacity:1"/></linearGradient>
        <linearGradient id="_Linear3" x1="0" y1="0" x2="1" y2="0" gradientUnits="userSpaceOnUse" gradientTransform="matrix(500.131237,-182.473976,201.320668,453.311309,245.587595,574.766995)"><stop offset="0" style="stop-color:rgb(66,111,163);stop-opacity:1"/><stop offset="0.48" style="stop-color:rgb(75,149,183);stop-opacity:1"/><stop offset="1" style="stop-color:rgb(99,255,240);stop-opacity:1"/></linearGradient>
    </defs>
</svg>
